<svg width="16" height="12" viewBox="0 0 16 12" fill="none" xmlns="http://www.w3.org/2000/svg">
<path d="M15.5683 1.84769C15.4813 1.50415 15.3108 1.19087 15.0738 0.939191C14.8368 0.687513 14.5416 0.506268 14.2178 0.413595C13.026 0.0736085 8.24826 0.0736084 8.24826 0.0736084C8.24826 0.0736084 3.47055 0.0736083 2.27868 0.411786C1.95474 0.504159 1.65942 0.685304 1.42238 0.937028C1.18534 1.18875 1.01492 1.50219 0.92823 1.84588C0.609375 3.11178 0.609375 5.7521 0.609375 5.7521C0.609375 5.7521 0.609375 8.39242 0.92823 9.65652C1.10386 10.3546 1.62221 10.9043 2.27868 11.0906C3.47055 11.4306 8.24826 11.4306 8.24826 11.4306C8.24826 11.4306 13.026 11.4306 14.2178 11.0906C14.876 10.9043 15.3927 10.3546 15.5683 9.65652C15.8872 8.39242 15.8872 5.7521 15.8872 5.7521C15.8872 5.7521 15.8872 3.11178 15.5683 1.84769ZM6.73072 8.17541V3.3288L10.6866 5.73402L6.73072 8.17541Z" fill="#AAAAAA"/>
</svg>
